<svg xmlns="http://www.w3.org/2000/svg" version="1.0" width="1563.000000pt" height="1563.000000pt" viewBox="0 0 1563.000000 1563.000000" preserveAspectRatio="xMidYMid meet">

<g transform="translate(0.000000,1563.000000) scale(0.100000,-0.100000)" fill="#ffffff" stroke="none">
<path d="M3400 11173 c0 -736 3 -913 13 -894 17 35 63 59 143 76 75 16 148 20 140 7 -2 -4 11 -6 30 -4 27 3 34 8 29 20 -3 9 -16 52 -28 96 -28 103 -30 285 -3 356 31 83 77 148 115 164 46 18 211 186 211 214 0 49 -57 65 -135 37 -22 -8 -50 -14 -62 -15 -19 0 -23 5 -23 33 0 17 4 47 9 65 6 18 6 43 2 55 -11 30 4 170 18 175 6 2 11 11 11 21 0 9 7 26 15 37 8 10 15 29 15 42 0 12 6 22 15 22 19 0 56 120 56 180 0 53 12 81 29 64 7 -7 8 -19 2 -35 -5 -13 -12 -49 -15 -79 l-6 -55 15 40 c8 21 20 73 27 114 7 45 18 76 26 79 10 3 12 -2 8 -19 -20 -81 -45 -205 -42 -208 2 -2 7 10 11 25 11 52 28 84 36 71 4 -7 5 4 2 23 -4 27 -3 31 5 20 8 -11 9 2 4 48 -5 54 -4 62 11 62 15 0 17 -7 11 -55 -9 -67 0 -72 16 -10 11 44 24 63 36 51 4 -3 1 -17 -5 -30 -7 -17 -7 -27 1 -35 8 -8 5 -18 -10 -39 -20 -26 -20 -28 -2 -28 20 0 39 46 39 93 0 32 21 73 37 73 19 0 16 -23 -6 -51 -10 -13 -23 -46 -29 -74 -10 -46 -9 -48 5 -30 20 26 63 116 63 133 0 6 9 12 20 12 27 0 25 -16 -5 -52 -30 -36 -72 -113 -55 -103 6 3 18 23 28 43 17 36 42 54 42 31 0 -7 -10 -24 -22 -37 l-23 -25 22 12 c13 7 27 28 33 51 12 44 53 99 63 83 3 -5 -9 -34 -28 -63 -19 -29 -32 -57 -29 -61 3 -5 -15 -39 -38 -76 -63 -97 -63 -97 -50 -89 7 4 12 2 12 -4 0 -6 5 -8 10 -5 23 14 8 -18 -27 -57 -33 -38 -34 -40 -5 -14 36 33 56 28 25 -7 -32 -35 -39 -54 -10 -28 24 22 38 19 19 -5 -4 -5 7 6 24 24 31 32 54 41 54 22 0 -5 -13 -19 -30 -32 -16 -12 -30 -26 -30 -31 0 -6 8 -3 18 6 21 19 42 22 42 7 0 -6 -12 -15 -26 -20 -14 -6 -22 -14 -19 -20 3 -5 8 -10 11 -10 3 0 2 5 -1 10 -3 6 1 10 9 10 18 0 21 -16 5 -25 -7 -5 -6 -14 4 -28 8 -12 19 -39 26 -59 7 -21 26 -48 42 -62 35 -30 37 -39 5 -26 -18 7 -26 5 -30 -5 -3 -8 0 -17 6 -21 7 -4 8 -3 4 4 -15 25 12 10 45 -24 l34 -36 -37 22 c-21 12 -42 19 -47 16 -11 -7 -23 22 -15 35 3 6 0 16 -6 24 -7 8 -9 22 -6 31 7 18 -25 97 -44 109 -9 6 -9 3 -1 -13 20 -37 12 -37 -23 1 -18 20 -42 37 -52 37 -16 0 -17 2 -4 10 15 9 -9 12 -118 13 -29 1 -33 4 -28 21 5 21 5 21 -12 1 -26 -29 -45 -31 -37 -3 3 14 -2 9 -14 -12 -18 -33 -18 -67 0 -39 5 8 9 10 9 4 0 -11 -44 -55 -54 -55 -3 0 -7 21 -7 48 -1 40 -3 36 -10 -27 -8 -69 -19 -107 -19 -67 0 23 -24 15 -28 -10 -2 -15 -1 -16 6 -5 8 11 11 9 17 -9 5 -15 10 -19 15 -10 5 8 9 7 14 -5 4 -12 12 -14 28 -9 20 6 21 5 9 -10 -7 -9 -9 -16 -4 -16 6 0 20 23 32 52 23 55 22 77 -1 33 -13 -23 -16 -25 -27 -11 -11 13 -9 17 15 27 16 6 31 10 34 10 3 0 14 9 26 20 12 11 37 22 57 26 31 5 40 1 69 -27 18 -18 48 -37 66 -42 28 -8 38 -19 63 -72 16 -35 39 -72 51 -82 12 -11 18 -13 13 -5 -5 8 10 0 33 -19 23 -18 42 -35 42 -36 0 -2 -16 4 -35 12 -38 16 -44 10 -18 -18 16 -17 15 -18 -5 -15 -12 2 -25 6 -28 10 -4 4 -15 7 -24 7 -9 0 -25 10 -36 22 -10 12 -13 18 -6 14 17 -10 15 9 -7 53 -12 23 -16 42 -11 51 22 35 -39 50 -78 18 -13 -11 -14 -11 -8 0 7 11 4 12 -13 2 -12 -6 -19 -15 -16 -21 9 -14 17 -11 9 4 -4 7 -3 9 2 4 24 -22 0 -54 -26 -34 -13 11 -13 10 -1 -5 7 -10 17 -15 22 -13 4 3 7 -3 7 -12 0 -10 2 -31 6 -48 l7 -30 -15 30 -15 30 5 -30 c10 -54 25 -95 35 -95 6 0 7 5 4 10 -3 6 -4 10 -1 10 3 0 12 -12 20 -28 12 -24 12 -31 -1 -52 -10 -17 -12 -19 -8 -5 11 34 10 37 -4 43 -8 3 -12 -1 -9 -9 3 -8 1 -22 -3 -31 -6 -10 -5 -19 1 -23 5 -3 1 -14 -10 -25 -11 -11 -23 -37 -26 -59 -7 -45 -34 -47 -35 -2 0 23 -1 24 -9 6 -6 -13 -9 -15 -9 -5 -1 10 -4 11 -9 4 -5 -8 -14 -9 -32 -1 -36 15 -51 17 -44 6 10 -16 12 -59 3 -64 -4 -3 -10 -1 -14 5 -4 6 -11 7 -17 4 -6 -4 -5 -10 3 -15 11 -7 10 -9 -3 -9 -9 0 -18 7 -20 15 -2 10 -7 7 -15 -10 -6 -14 -7 -22 -1 -19 5 3 4 -3 -3 -14 -7 -12 -17 -18 -21 -16 -5 3 -6 9 -4 13 3 4 -1 8 -9 8 -8 0 -12 -4 -9 -8 2 -4 0 -10 -6 -14 -13 -8 -13 -62 0 -70 8 -5 7 -11 -1 -21 -7 -8 -13 -27 -15 -42 -1 -15 -2 -29 -3 -31 -1 -3 -13 6 -27 20 l-25 24 5 -29 c3 -15 10 -34 17 -42 6 -8 9 -23 6 -34 -3 -11 -1 -18 3 -15 5 3 14 -5 21 -17 7 -13 17 -26 23 -30 8 -5 7 -8 -1 -8 -8 0 -10 -7 -6 -17 6 -15 4 -16 -9 -5 -13 11 -18 11 -24 0 -4 -7 -4 -10 1 -6 10 9 40 -21 41 -42 1 -12 -5 -16 -17 -13 -11 3 -19 0 -19 -6 0 -6 3 -10 8 -10 21 4 32 -2 26 -13 -5 -7 -2 -9 8 -6 11 5 14 0 12 -18 -1 -13 1 -26 6 -29 4 -2 5 -17 2 -31 -3 -19 -1 -25 6 -20 8 5 10 -3 7 -26 -4 -26 -3 -29 4 -13 8 17 10 14 10 -18 1 -22 5 -36 11 -32 5 3 7 12 3 20 -3 8 -1 15 4 15 5 0 9 -10 10 -22 1 -11 7 -24 14 -28 6 -5 8 -13 4 -20 -5 -9 -4 -11 3 -6 7 4 12 1 12 -9 0 -9 5 -13 10 -10 6 3 10 1 10 -4 0 -6 7 -11 16 -11 11 0 14 -5 10 -16 -3 -9 -6 -17 -6 -19 0 -2 -28 17 -62 43 -35 26 -83 55 -108 66 -25 10 -52 21 -60 26 -8 4 -31 6 -50 4 -28 -3 -31 -2 -15 5 23 11 3 14 -32 5 -19 -5 -21 -10 -12 -25 5 -11 6 -19 1 -19 -15 0 -34 28 -27 40 4 6 -5 10 -22 9 -25 0 -26 -1 -8 -9 16 -7 14 -9 -15 -9 -27 -1 -32 2 -20 10 11 8 5 9 -25 5 -22 -3 -47 -6 -55 -6 -13 0 -13 -1 0 -10 11 -8 7 -9 -15 -4 -29 6 -29 6 -10 -10 20 -17 20 -17 -2 -7 -29 15 -38 14 -25 -2 13 -16 9 -50 -6 -55 -22 -7 -12 -20 11 -14 27 7 48 27 39 37 -4 5 -1 5 6 1 7 -5 10 -17 7 -29 -5 -19 -4 -19 9 3 9 14 15 22 16 18 0 -4 11 -3 25 2 16 6 25 6 25 0 0 -6 -8 -10 -17 -11 -14 0 -15 -2 -3 -6 8 -3 18 -10 21 -15 3 -4 50 -11 104 -15 77 -5 96 -4 91 6 -5 7 10 3 33 -8 23 -12 41 -24 41 -26 0 -3 -13 1 -30 10 -47 24 -45 18 7 -21 26 -20 75 -62 108 -93 129 -123 215 -194 215 -177 0 10 -4 15 -9 11 -5 -3 -12 -1 -16 5 -3 5 -1 10 4 10 6 0 10 6 9 13 -2 6 2 11 8 10 8 -2 9 9 3 35 -5 22 -4 39 2 43 6 3 4 11 -6 19 -13 11 -14 10 -9 -5 5 -12 4 -16 -4 -11 -6 3 -15 -2 -21 -11 -11 -19 -15 -10 -12 32 1 11 -18 43 -43 70 -42 48 -43 52 -30 75 l15 25 -7 -24 c-4 -15 -2 -21 4 -17 6 3 13 -3 17 -14 4 -11 10 -18 15 -15 14 8 41 -7 36 -20 -2 -7 1 -12 7 -12 33 1 45 -5 50 -22 5 -21 60 -34 77 -17 7 7 10 4 10 -10 0 -16 2 -17 10 -4 8 12 10 8 11 -15 1 -26 2 -25 11 13 6 26 15 42 24 42 8 0 13 -4 10 -9 -4 -5 3 -7 14 -4 19 5 19 6 3 19 -17 12 -17 13 0 20 15 5 16 9 5 15 -10 7 -10 9 0 9 6 0 12 11 12 25 0 21 5 25 28 25 15 0 23 4 17 8 -14 10 -17 32 -4 32 5 0 7 4 4 10 -4 6 1 7 12 3 15 -6 16 -4 5 9 -11 13 -10 16 5 14 10 0 18 7 20 19 l3 20 -9 -20 c-5 -11 -10 -14 -10 -7 -1 8 8 25 19 39 16 20 17 29 8 46 -9 17 -7 24 12 39 12 10 28 18 36 18 8 0 14 4 14 10 0 5 -7 7 -15 4 -8 -4 -15 -1 -15 5 0 10 14 15 33 12 4 0 7 6 7 14 0 12 -4 13 -19 5 -24 -13 -42 -13 -20 0 11 6 15 18 11 35 -3 18 0 25 11 25 8 0 20 7 27 15 7 8 18 15 24 14 6 0 1 -7 -11 -16 -13 -8 -23 -23 -23 -32 0 -14 -2 -14 -11 -1 -9 12 -10 12 -7 1 5 -19 28 -27 28 -10 0 7 8 21 17 31 33 37 25 49 -18 28 -45 -23 -62 -26 -35 -5 11 8 16 15 11 15 -5 0 6 14 25 31 19 17 27 26 18 19 -14 -9 -18 -10 -18 -1 0 7 -4 10 -9 7 -5 -4 -7 3 -4 15 5 16 8 18 15 7 7 -9 8 -8 4 5 -3 10 -6 20 -6 23 0 2 -8 1 -17 -3 -12 -4 -9 1 7 15 19 17 21 21 6 15 -13 -4 -17 -3 -12 5 4 7 14 12 22 12 8 0 14 5 14 10 0 6 -14 3 -31 -6 -32 -16 -32 -16 -26 8 6 22 5 22 -8 4 -8 -11 -15 -26 -15 -33 0 -11 -3 -11 -14 -1 -12 11 -11 14 3 20 10 4 11 7 3 7 -9 1 -11 8 -7 21 5 15 3 18 -8 14 -11 -4 -15 1 -14 18 0 13 -3 31 -7 40 -6 13 -3 15 13 11 12 -3 21 -10 21 -15 0 -5 10 -6 21 -3 14 5 19 3 15 -3 -7 -12 19 -10 31 2 4 4 4 6 -2 4 -11 -3 -62 29 -57 37 6 12 1 22 -13 22 -8 0 -12 -4 -9 -9 3 -4 -2 -5 -10 -2 -9 3 -13 11 -10 16 4 6 -4 5 -16 -2 -12 -7 -20 -8 -16 -2 3 5 -1 12 -9 16 -9 3 -12 12 -8 23 6 16 4 16 -16 -2 -15 -13 -20 -26 -17 -41 4 -13 2 -26 -4 -29 -6 -3 -7 1 -4 9 10 25 -6 18 -16 -6 -8 -21 -9 -20 -7 7 0 17 6 34 12 38 5 5 -1 5 -14 2 -16 -5 -21 -4 -17 4 4 6 2 12 -3 12 -6 1 -15 3 -21 4 -5 1 -17 3 -25 4 -19 1 -19 12 1 37 15 19 16 19 10 -1 l-6 -20 16 20 c16 20 16 20 9 -2 -5 -17 -2 -23 9 -23 22 0 20 20 -4 50 -15 18 -18 20 -13 6 4 -13 3 -17 -5 -12 -6 3 -13 2 -17 -4 -4 -6 -11 -8 -16 -5 -5 3 -6 0 -3 -8 3 -8 0 -18 -7 -23 -7 -4 -15 -2 -17 5 -3 9 -7 9 -18 0 -11 -9 -14 -8 -14 5 0 11 5 14 12 10 8 -5 9 -2 5 10 -4 10 -7 20 -7 22 0 3 -5 2 -12 -2 -8 -5 -9 -2 -5 9 4 10 1 17 -6 17 -7 1 -5 6 5 14 10 7 14 16 10 20 -4 4 -2 7 3 6 21 -5 24 1 15 24 -7 18 -5 26 6 30 8 3 14 9 13 13 -4 24 4 32 34 35 33 3 34 3 15 23 -16 16 -18 17 -13 2 4 -10 2 -17 -4 -17 -6 0 -11 6 -11 14 0 8 -3 23 -6 33 -5 15 -4 15 5 3 6 -8 11 -11 11 -6 0 5 6 3 14 -3 11 -9 15 -9 19 1 3 9 11 7 29 -9 13 -13 30 -23 38 -23 9 0 8 4 -5 13 -17 13 -16 14 11 12 35 -2 85 -26 66 -33 -10 -3 -9 -7 4 -17 15 -10 12 -11 -17 -8 l-34 4 25 -15 c14 -8 33 -15 42 -16 9 0 19 -4 23 -9 3 -5 -10 -8 -31 -6 -35 3 -35 3 -17 -17 10 -11 45 -32 78 -47 74 -34 137 -102 162 -174 13 -39 17 -81 17 -167 -1 -146 -24 -268 -76 -395 -50 -124 -83 -219 -108 -310 -10 -39 -22 -78 -25 -87 -5 -13 0 -18 22 -21 16 -2 6 -5 -24 -6 -29 0 -53 -5 -53 -11 0 -5 7 -7 15 -3 9 3 26 -3 38 -13 21 -19 21 -19 7 1 -15 19 -15 19 12 0 14 -11 25 -21 24 -22 -1 -2 -71 -10 -111 -13 -5 0 -3 -5 5 -10 11 -7 6 -10 -21 -10 -24 0 -39 -5 -43 -16 -4 -11 -1 -14 12 -10 30 8 168 16 151 8 -15 -6 -15 -13 4 -75 15 -51 18 -75 11 -95 -5 -15 -14 -25 -19 -22 -6 3 -13 -15 -17 -40 -16 -102 -20 -117 -29 -95 -5 12 -6 -10 -4 -51 3 -39 8 -80 12 -90 6 -17 8 -17 14 6 6 23 7 23 8 3 1 -12 -4 -25 -9 -28 -6 -4 -7 -11 -4 -17 4 -7 9 -6 14 2 4 6 12 -23 19 -65 14 -95 14 -108 0 -99 -7 4 -10 1 -7 -7 3 -8 11 -13 17 -11 6 1 11 -5 11 -14 0 -8 -4 -12 -10 -9 -5 3 -10 2 -10 -4 0 -5 5 -11 10 -13 6 -2 17 -44 25 -93 18 -108 18 -145 1 -90 -7 22 -11 50 -9 63 2 12 0 22 -5 22 -4 0 -6 16 -4 36 3 25 1 35 -7 30 -6 -4 -11 -17 -11 -29 0 -12 -3 -41 -6 -64 -4 -29 -2 -43 5 -43 14 0 15 -27 1 -35 -6 -4 -7 1 -4 12 5 15 4 16 -5 3 -14 -19 -4 -86 18 -120 15 -24 15 -24 -2 -11 -16 12 -17 12 -11 -5 4 -10 12 -25 18 -33 8 -11 8 -13 0 -8 -13 8 -25 -37 -14 -50 3 -4 11 -20 18 -35 9 -21 9 -27 0 -25 -7 1 -20 25 -30 52 -20 58 -21 65 -7 45 8 -11 9 -6 3 20 -4 19 -6 50 -5 68 0 20 -6 39 -19 52 -11 11 -20 30 -20 43 0 17 -2 19 -10 7 -5 -9 -5 -19 2 -27 5 -7 8 -20 4 -28 -3 -10 1 -15 11 -15 12 0 14 -3 7 -10 -7 -7 -8 -28 -3 -58 4 -26 8 -67 8 -92 1 -26 6 -51 13 -58 9 -9 9 -12 -3 -12 -10 -1 -10 -3 4 -11 9 -5 17 -19 17 -29 0 -10 5 -22 10 -25 6 -3 10 -17 10 -31 0 -19 5 -25 18 -22 11 2 16 11 14 25 -2 12 2 24 8 28 16 10 12 91 -5 105 -8 7 -15 17 -15 22 0 6 7 4 16 -3 15 -12 16 -8 13 43 -2 31 -1 54 4 51 12 -8 8 -226 -6 -253 -19 -38 -50 -37 -76 2 l-21 33 -1 -65 c-1 -65 -1 -65 -10 -21 -5 24 -6 48 -2 54 3 6 1 7 -5 3 -7 -4 -12 -3 -12 3 0 5 4 13 10 16 6 3 10 11 10 17 0 6 -7 5 -17 -3 -14 -12 -14 -10 1 14 18 27 17 51 -9 122 -6 17 -5 17 5 5 9 -12 10 -10 4 10 -3 14 -13 37 -20 52 -16 32 -18 50 -3 28 12 -18 4 51 -14 115 -6 22 -10 52 -10 67 1 16 -3 27 -10 25 -7 -1 -10 5 -8 13 16 64 18 80 11 80 -5 0 -12 -5 -16 -12 -5 -8 -10 -6 -15 8 -4 11 -7 -7 -6 -43 1 -35 6 -63 10 -63 5 0 5 -5 2 -10 -4 -6 -11 -8 -16 -4 -6 3 -1 -14 11 -37 20 -42 20 -43 1 -19 l-20 25 10 -40 c5 -22 11 -59 13 -82 3 -23 12 -59 22 -79 20 -42 26 -76 11 -67 -5 3 -7 0 -5 -8 3 -8 10 -13 15 -12 5 1 9 -7 9 -18 0 -19 -1 -19 -13 -3 -22 31 -16 -35 8 -80 11 -21 16 -35 10 -32 -5 3 -21 -8 -35 -25 -14 -17 -26 -24 -26 -17 0 8 6 20 13 27 10 11 10 13 0 7 -12 -7 -19 14 -13 39 1 6 3 16 3 23 0 6 3 12 6 12 11 0 12 88 2 95 -6 3 -15 -9 -20 -27 -6 -22 -10 -26 -10 -12 -1 11 6 29 14 40 17 22 20 48 5 39 -7 -4 -8 3 -4 21 5 20 4 25 -6 19 -9 -6 -10 -4 -3 10 7 12 6 26 -3 44 -8 14 -14 34 -14 45 0 13 -5 16 -16 12 -14 -5 -15 -4 -4 9 10 12 10 18 0 30 -19 23 -30 8 -30 -40 0 -27 5 -45 14 -48 11 -4 12 -13 3 -47 -9 -32 -9 -43 1 -49 9 -5 11 -21 6 -51 -5 -28 -4 -41 3 -37 6 4 9 -8 8 -31 -2 -20 -1 -31 2 -24 3 6 9 12 14 12 6 0 6 -7 0 -18 -12 -23 -7 -118 9 -157 l13 -30 7 25 c7 25 7 25 11 -5 3 -22 10 -31 27 -33 12 -2 22 1 22 7 0 6 7 11 15 11 8 0 15 8 16 18 0 11 2 12 6 4 9 -22 -27 -52 -63 -52 -38 0 -59 24 -70 78 -6 31 -9 32 -40 26 -51 -9 -80 14 -93 76 -6 28 -11 67 -11 85 0 29 -4 35 -22 35 -30 0 -88 47 -103 84 -13 34 -21 486 -7 486 4 0 5 51 2 112 -4 83 -10 122 -23 146 -17 32 -19 33 -32 15 -11 -14 -16 -15 -26 -6 -9 9 -9 31 1 102 16 112 9 287 -15 356 -27 81 -84 189 -125 237 l-39 45 -108 6 c-117 7 -180 -3 -223 -33 -26 -18 -28 -19 -42 -2 -9 9 -18 24 -21 32 -3 8 -6 -571 -6 -1287 l-1 -1302 138 64 c560 259 1295 510 1977 676 882 214 1883 351 2870 392 47 1 20 7 -125 25 -432 52 -804 85 -1175 103 -300 14 -1067 14 -1320 0 -269 -15 -505 -31 -537 -36 l-28 -4 0 724 0 725 1325 0 c861 0 1360 -4 1423 -11 224 -24 526 -106 722 -195 305 -139 547 -310 780 -550 202 -208 328 -388 458 -654 41 -85 76 -156 76 -157 1 -1 91 -11 201 -23 529 -55 1030 -129 1473 -216 128 -26 236 -43 239 -40 11 10 -34 243 -83 431 -73 287 -157 516 -283 780 -236 491 -536 898 -947 1286 -643 605 -1495 1006 -2364 1113 -279 35 -382 36 -2601 36 l-2219 0 0 -917z m890 654 c-23 -22 -48 -51 -57 -64 -9 -13 -18 -22 -20 -19 -6 6 75 127 96 144 13 11 17 10 20 -4 2 -10 -14 -33 -39 -57z m12 -20 c-26 -27 -27 -34 -7 -34 8 0 12 4 9 9 -3 4 0 8 5 8 19 0 12 -23 -15 -51 -25 -26 -25 -27 -5 -22 33 8 25 -10 -18 -45 -38 -31 -40 -31 -37 -9 1 13 6 29 11 37 5 8 15 26 24 40 15 25 15 25 -5 8 -52 -45 -44 -5 8 43 48 43 63 52 30 16z m-92 -282 c10 -12 10 -15 -3 -15 -8 0 -20 7 -27 15 -10 12 -10 15 3 15 8 0 20 -7 27 -15z m-293 -57 c-3 -8 -6 -5 -6 6 -1 11 2 17 5 13 3 -3 4 -12 1 -19z m16 -33 c-3 -9 -8 -14 -10 -11 -3 3 -2 9 2 15 9 16 15 13 8 -4z m311 -141 c3 -8 2 -14 -2 -14 -10 0 -32 22 -32 32 0 12 28 -2 34 -18z m-50 -38 c-8 -20 -24 -21 -24 0 0 8 5 12 10 9 6 -3 10 -1 10 6 0 7 2 10 5 7 3 -3 3 -13 -1 -22z m-164 -241 c11 -13 10 -14 -4 -9 -9 3 -16 10 -16 15 0 13 6 11 20 -6z m140 -87 c0 -7 -5 -20 -10 -28 -8 -12 -10 -9 -10 13 0 15 5 27 10 27 6 0 10 -6 10 -12z m140 0 c0 -4 -7 -8 -15 -8 -8 0 -15 4 -15 8 0 5 7 9 15 9 8 0 15 -4 15 -9z m90 -8 c0 -5 -5 -10 -11 -10 -5 0 -7 5 -4 10 3 6 8 10 11 10 2 0 4 -4 4 -10z m-500 -49 c-5 -10 -6 -22 -2 -26 4 -5 1 -5 -5 -1 -14 8 -17 38 -7 49 13 13 24 -5 14 -22z m108 3 c-6 -13 -15 -21 -19 -18 -5 3 -9 0 -9 -7 0 -7 -2 -10 -5 -7 -9 9 16 55 30 55 10 0 11 -6 3 -23z m52 20 c0 -8 -19 -13 -24 -6 -3 5 1 9 9 9 8 0 15 -2 15 -3z m239 -11 c0 -5 -4 -17 -9 -28 l-9 -20 -1 20 -1 20 -9 -20 c-8 -18 -9 -17 -9 8 -1 21 4 27 19 27 11 0 20 -3 19 -7z m198 0 c-4 -3 -1 -13 6 -21 11 -13 9 -14 -10 -1 -16 9 -19 16 -10 21 15 9 23 10 14 1z m-248 -63 l-1 -35 -8 30 c-4 17 -8 39 -9 50 -1 16 1 17 9 5 5 -8 9 -31 9 -50z m-32 13 c-3 -10 -5 -4 -5 12 0 17 2 24 5 18 2 -7 2 -21 0 -30z m-277 -33 c-10 -30 -19 -47 -19 -38 -1 18 29 101 35 96 1 -2 -6 -28 -16 -58z m437 28 c-3 -8 -6 -5 -6 6 -1 11 2 17 5 13 3 -3 4 -12 1 -19z m-410 -20 c-3 -8 -6 -5 -6 6 -1 11 2 17 5 13 3 -3 4 -12 1 -19z m493 12 c0 -5 -2 -10 -4 -10 -3 0 -8 5 -11 10 -3 6 -1 10 4 10 6 0 11 -4 11 -10z m-13 -62 c-3 -8 -6 -5 -6 6 -1 11 2 17 5 13 3 -3 4 -12 1 -19z m-550 -20 c-3 -8 -6 -5 -6 6 -1 11 2 17 5 13 3 -3 4 -12 1 -19z m150 -20 c-3 -8 -6 -5 -6 6 -1 11 2 17 5 13 3 -3 4 -12 1 -19z m-192 2 c3 -5 2 -10 -4 -10 -5 0 -13 5 -16 10 -3 6 -2 10 4 10 5 0 13 -4 16 -10z m264 -130 c3 24 4 24 10 -5 4 -16 3 -32 -2 -34 -18 -7 -27 26 -25 99 l2 75 6 -80 c3 -44 8 -69 9 -55z m224 79 c-5 -5 -14 1 -21 12 -8 12 -9 18 -3 15 5 -4 13 -1 18 6 5 10 9 8 11 -6 2 -10 0 -22 -5 -27z m-468 1 c3 -5 2 -10 -4 -10 -5 0 -13 5 -16 10 -3 6 -2 10 4 10 5 0 13 -4 16 -10z m82 -57 c-3 -10 -5 -4 -5 12 0 17 2 24 5 18 2 -7 2 -21 0 -30z m492 -35 c0 -35 -4 -55 -7 -46 -7 18 -4 108 4 108 2 0 4 -28 3 -62z m-477 -20 c-7 -7 -12 -8 -12 -2 0 14 12 26 19 19 2 -3 -1 -11 -7 -17z m9 -35 c-12 -20 -14 -14 -5 12 4 9 9 14 11 11 3 -2 0 -13 -6 -23z m451 -8 c3 -14 1 -28 -3 -31 -5 -3 -9 9 -9 25 0 38 6 40 12 6z m83 5 c3 -5 1 -10 -4 -10 -6 0 -11 5 -11 10 0 6 2 10 4 10 3 0 8 -4 11 -10z m-395 -116 c0 -14 -4 -23 -10 -19 -5 3 -10 15 -10 26 0 10 5 19 10 19 6 0 10 -12 10 -26z m257 4 c-3 -8 -6 -5 -6 6 -1 11 2 17 5 13 3 -3 4 -12 1 -19z m-239 -69 c-3 -8 -7 -3 -11 10 -4 17 -3 21 5 13 5 -5 8 -16 6 -23z m-108 1 c0 -5 -4 -10 -10 -10 -5 0 -10 5 -10 10 0 6 5 10 10 10 6 0 10 -4 10 -10z m-234 -19 c-4 -5 8 -12 25 -16 23 -5 28 -9 18 -16 -18 -11 -32 -11 -25 0 3 5 -4 11 -15 14 -17 5 -20 27 -3 27 3 0 3 -4 0 -9z m-163 -8 c-7 -2 -21 -2 -30 0 -10 3 -4 5 12 5 17 0 24 -2 18 -5z m446 -61 c-13 -5 -49 37 -49 57 0 10 10 4 30 -19 16 -19 25 -37 19 -38z m91 12 c0 -8 -4 -12 -10 -9 -5 3 -10 13 -10 21 0 8 5 12 10 9 6 -3 10 -13 10 -21z m106 -21 c-8 -15 -15 -25 -16 -21 0 12 23 58 27 54 3 -2 -2 -17 -11 -33z m-355 12 c37 -3 157 -117 156 -149 0 -15 -6 -12 -28 15 -15 19 -26 36 -23 40 4 7 -27 36 -73 68 -23 15 -34 18 -39 10 -4 -7 -3 -9 3 -6 6 4 13 0 17 -8 8 -21 -10 -19 -34 5 -22 22 -27 46 -8 34 7 -5 20 -9 29 -9z m278 -22 c0 -25 -1 -25 -8 -8 -5 11 -7 23 -4 28 8 14 13 7 12 -20z m-453 4 c-18 -6 -39 -6 -59 1 -29 9 -26 10 28 9 50 -1 55 -2 31 -10z m364 -12 c7 -9 8 -15 2 -15 -5 0 -12 7 -16 15 -3 8 -4 15 -2 15 2 0 9 -7 16 -15z m237 -7 c-3 -8 -6 -5 -6 6 -1 11 2 17 5 13 3 -3 4 -12 1 -19z m-40 -20 c-3 -8 -6 -5 -6 6 -1 11 2 17 5 13 3 -3 4 -12 1 -19z m-391 -24 c2 -12 -1 -13 -12 -3 -7 6 -11 16 -8 21 7 11 17 3 20 -18z m40 -30 c2 -12 -1 -13 -12 -3 -7 6 -11 16 -8 21 7 11 17 3 20 -18z m333 -28 c-9 -8 -10 -7 -5 7 3 10 7 24 7 30 1 7 3 4 6 -7 3 -10 -1 -23 -8 -30z m-283 17 c16 -21 18 -33 5 -33 -15 0 -42 31 -36 41 9 13 16 11 31 -8z m94 -138 c30 -30 52 -55 49 -55 -2 0 -29 25 -59 55 -30 30 -52 55 -49 55 2 0 29 -25 59 -55z m70 21 c0 -3 -4 -8 -10 -11 -5 -3 -10 -1 -10 4 0 6 5 11 10 11 6 0 10 -2 10 -4z m650 -103 c-1 -21 -11 -58 -23 -83 l-22 -45 -71 -3 c-40 -2 -94 2 -120 7 -46 9 -44 9 21 4 52 -3 78 -1 100 11 l30 16 -30 1 -30 1 30 8 c17 4 22 8 12 9 -10 0 -15 6 -12 11 4 6 -12 10 -39 10 -32 0 -46 4 -46 14 0 9 10 13 29 11 20 -2 32 3 36 13 5 14 7 15 16 2 9 -13 10 -13 6 0 -3 10 -15 14 -40 12 -19 -1 -39 2 -42 9 -6 8 6 10 39 8 25 -2 46 -1 46 3 0 4 19 9 43 11 23 2 48 4 55 5 8 1 12 -11 12 -35z m-220 0 c-8 -3 -20 -10 -26 -15 -8 -5 -14 -3 -18 7 -4 12 2 15 27 14 18 0 25 -3 17 -6z m63 -88 c-3 -9 -24 -11 -65 -6 -10 1 -10 3 0 10 18 11 68 8 65 -4z m-150 -2 c-7 -2 -19 -2 -25 0 -7 3 -2 5 12 5 14 0 19 -2 13 -5z m60 -10 c-7 -2 -19 -2 -25 0 -7 3 -2 5 12 5 14 0 19 -2 13 -5z m-83 -405 c0 -49 -5 -47 -13 5 -3 20 -2 37 4 37 5 0 9 -19 9 -42z m86 -645 c-13 -14 -25 9 -13 28 12 20 12 20 15 -1 2 -12 1 -24 -2 -27z m-176 17 c6 -11 8 -20 6 -20 -3 0 -10 9 -16 20 -6 11 -8 20 -6 20 3 0 10 -9 16 -20z m-56 -16 c3 -8 2 -12 -4 -9 -6 3 -10 10 -10 16 0 14 7 11 14 -7z" fill="#ffffff"/>
<path d="M4727 9923 c-3 -5 6 -8 19 -8 13 0 24 3 24 8 0 4 -9 7 -19 7 -11 0 -22 -3 -24 -7z" fill="#ffffff"/>
<path d="M4246 11993 c-6 -14 -5 -15 5 -6 7 7 10 15 7 18 -3 3 -9 -2 -12 -12z" fill="#ffffff"/>
<path d="M4316 11993 c-6 -14 -5 -15 5 -6 7 7 10 15 7 18 -3 3 -9 -2 -12 -12z" fill="#ffffff"/>
<path d="M4208 11843 c-35 -89 -65 -173 -61 -173 5 0 22 39 57 134 14 36 23 66 20 66 -2 0 -9 -12 -16 -27z" fill="#ffffff"/>
<path d="M4091 11823 c-10 -26 -10 -27 4 -9 8 11 15 23 15 28 0 15 -7 8 -19 -19z" fill="#ffffff"/>
<path d="M4060 11811 c-12 -24 -13 -34 -1 -27 9 6 22 46 15 46 -2 0 -8 -9 -14 -19z" fill="#ffffff"/>
<path d="M4120 11815 c-7 -9 -8 -15 -2 -15 5 0 12 7 16 15 3 8 4 15 2 15 -2 0 -9 -7 -16 -15z" fill="#ffffff"/>
<path d="M4149 11789 c-7 -14 -7 -25 -1 -31 6 -6 11 1 14 21 5 36 3 38 -13 10z" fill="#ffffff"/>
<path d="M4075 11755 c-4 -16 -16 -42 -26 -57 -22 -31 -26 -61 -4 -32 10 14 14 15 15 5 0 -11 4 -10 16 5 13 16 15 16 10 2 -9 -28 9 -21 23 9 11 23 10 25 -3 13 -19 -15 -20 -7 -5 23 9 19 7 18 -10 -3 -11 -14 -21 -29 -21 -34 0 -5 -2 -7 -5 -4 -3 3 2 22 10 42 9 21 14 43 12 49 -3 7 -8 -1 -12 -18z" fill="#ffffff"/>
<path d="M3997 11697 c-31 -61 -36 -91 -7 -37 21 38 26 36 10 -4 -5 -14 -7 -26 -5 -26 9 0 27 53 30 88 2 17 2 32 1 32 -1 0 -14 -24 -29 -53z" fill="#ffffff"/>
<path d="M4120 11680 c-6 -11 -8 -20 -6 -20 3 0 10 9 16 20 6 11 8 20 6 20 -3 0 -10 -9 -16 -20z" fill="#ffffff"/>
<path d="M3936 11584 c-4 -14 -5 -28 -3 -31 3 -2 8 8 11 23 4 14 5 28 3 31 -3 2 -8 -8 -11 -23z" fill="#ffffff"/>
<path d="M4096 11598 c3 -4 12 -8 20 -8 8 0 14 4 14 8 0 4 -9 8 -19 8 -11 0 -17 -4 -15 -8z" fill="#ffffff"/>
<path d="M3872 11510 c0 -14 2 -19 5 -12 2 6 2 18 0 25 -3 6 -5 1 -5 -13z" fill="#ffffff"/>
<path d="M4063 11520 c-24 -10 -43 -39 -43 -67 1 -11 8 -4 21 20 22 41 35 45 80 21 36 -18 47 -14 22 8 -25 22 -54 28 -80 18z" fill="#ffffff"/>
<path d="M4056 11478 c-18 -25 -13 -38 15 -38 23 0 43 41 25 52 -17 12 -24 10 -40 -14z m34 -8 c0 -11 -4 -20 -9 -20 -14 0 -23 18 -16 30 10 17 25 11 25 -10z" fill="#ffffff"/>
<path d="M4188 11453 c6 -2 18 -2 25 0 6 3 1 5 -13 5 -14 0 -19 -2 -12 -5z" fill="#ffffff"/>
<path d="M4099 11410 c-30 -22 -65 -40 -79 -40 -14 0 -32 -5 -40 -10 -28 -18 33 -11 66 8 55 30 128 82 117 82 -6 0 -35 -18 -64 -40z" fill="#ffffff"/>
<path d="M4028 11419 c-27 -15 -23 -42 5 -33 27 8 47 23 47 35 0 12 -31 11 -52 -2z" fill="#ffffff"/>
<path d="M3901 11393 c-1 -7 -7 -13 -14 -13 -19 0 -37 -44 -37 -90 0 -39 0 -39 20 -22 12 9 26 17 32 17 6 0 20 13 32 28 l21 29 -21 17 c-11 9 -23 23 -27 31 -3 10 -6 10 -6 3z m-23 -48 c-6 -14 -13 -23 -15 -21 -5 5 15 46 22 46 3 0 -1 -11 -7 -25z m44 -27 c-9 -9 -12 -7 -12 12 0 19 3 21 12 12 9 -9 9 -15 0 -24z" fill="#ffffff"/>
<path d="M4105 11340 c10 -11 20 -20 23 -20 3 0 -3 9 -13 20 -10 11 -20 20 -23 20 -3 0 3 -9 13 -20z" fill="#ffffff"/>
<path d="M3974 11324 c3 -9 6 -18 6 -21 0 -3 7 0 15 7 21 18 19 30 -6 30 -15 0 -19 -4 -15 -16z" fill="#ffffff"/>
<path d="M4037 11309 c7 -7 15 -10 18 -7 3 3 -2 9 -12 12 -14 6 -15 5 -6 -5z" fill="#ffffff"/>
<path d="M3934 11288 l-19 -23 23 19 c12 11 22 21 22 23 0 8 -8 2 -26 -19z" fill="#ffffff"/>
<path d="M4235 11119 c-10 -15 3 -25 16 -12 7 7 7 13 1 17 -6 3 -14 1 -17 -5z" fill="#ffffff"/>
<path d="M4360 11117 c0 -7 14 -13 30 -14 38 -3 38 2 0 16 -22 7 -30 7 -30 -2z" fill="#ffffff"/>
<path d="M4121 11084 c0 -11 3 -14 6 -6 3 7 2 16 -1 19 -3 4 -6 -2 -5 -13z" fill="#ffffff"/>
<path d="M4445 11049 c76 -42 121 -87 151 -152 28 -59 29 -69 28 -197 0 -152 -15 -221 -79 -370 -20 -47 -39 -91 -42 -99 -5 -10 -2 -12 8 -6 8 5 11 5 6 -1 -5 -5 -14 -9 -20 -9 -7 0 -12 -8 -12 -18 0 -10 -7 -22 -15 -27 -8 -5 -11 -10 -6 -10 4 0 -1 -8 -13 -17 -27 -24 -81 -129 -81 -159 0 -24 -1 -24 -24 -9 -23 15 -25 15 -35 -4 -16 -29 -14 -81 3 -81 8 0 12 7 10 18 -2 9 0 24 6 32 15 23 32 -7 26 -47 -4 -25 -1 -33 11 -33 13 0 15 9 11 50 -3 28 -1 53 4 56 4 3 6 9 3 14 -8 13 25 90 38 87 7 -1 12 8 12 20 0 11 4 25 9 30 5 4 6 3 3 -4 -4 -6 -3 -13 2 -15 5 -1 -1 -27 -12 -57 -17 -43 -22 -50 -28 -35 -10 25 -10 -2 0 -36 6 -22 10 -15 30 46 13 39 36 93 53 120 16 27 26 40 22 29 -51 -140 -64 -181 -59 -196 4 -11 11 -19 17 -19 5 0 7 7 4 15 -3 9 -2 23 3 33 5 9 15 45 22 80 6 34 15 65 20 68 4 2 11 25 15 49 3 25 10 45 15 45 5 0 9 6 9 14 0 8 7 21 15 30 9 8 14 21 13 28 -2 7 3 12 10 10 7 -1 12 8 12 23 0 14 4 33 9 43 5 9 14 44 21 77 6 33 15 74 20 90 5 17 6 42 3 58 -3 18 -1 27 7 27 8 0 11 12 8 38 -3 20 -1 48 4 61 8 22 7 23 -8 10 -16 -13 -16 -12 -7 6 12 23 11 101 -2 113 -4 4 -5 1 0 -7 6 -10 4 -12 -4 -7 -9 6 -9 11 1 24 11 14 10 15 -6 9 -16 -6 -17 -5 -7 7 9 11 9 16 0 22 -8 5 -9 3 -4 -6 5 -9 4 -11 -4 -6 -6 4 -9 12 -5 17 3 6 -2 17 -12 25 -11 9 -13 13 -6 9 23 -12 12 11 -20 42 -35 33 -89 63 -110 62 -7 0 10 -11 38 -23 28 -13 54 -28 57 -33 4 -6 -15 1 -40 14 -26 12 -52 23 -59 23 -7 0 -14 4 -16 9 -1 5 -16 12 -33 16 -27 5 -27 4 10 -16z m225 -379 c0 -11 -2 -20 -4 -20 -2 0 -6 9 -9 20 -3 11 -1 20 4 20 5 0 9 -9 9 -20z m-60 -235 c-16 -47 -23 -40 -8 8 6 20 13 35 16 33 2 -3 -1 -21 -8 -41z m-29 -72 c-12 -20 -14 -14 -5 12 4 9 9 14 11 11 3 -2 0 -13 -6 -23z" fill="#ffffff"/>
<path d="M4226 11024 c-6 -14 9 -54 20 -54 2 0 0 9 -6 19 -13 25 -13 34 0 26 6 -3 7 1 4 9 -8 20 -10 20 -18 0z" fill="#ffffff"/>
<path d="M4266 11023 c-6 -14 -5 -15 5 -6 7 7 10 15 7 18 -3 3 -9 -2 -12 -12z" fill="#ffffff"/>
<path d="M3803 10945 c-13 -19 -23 -47 -23 -62 0 -14 -3 -23 -7 -19 -5 4 -13 -19 -20 -51 -10 -50 -12 -52 -8 -13 4 38 3 41 -6 20 -6 -14 -8 -42 -5 -63 4 -21 3 -36 -1 -34 -5 3 -8 -8 -9 -25 -1 -20 2 -25 7 -16 6 8 9 1 9 -22 0 -26 -3 -31 -10 -20 -5 8 -10 11 -10 7 0 -4 8 -20 17 -35 17 -27 17 -27 -2 -12 -18 14 -19 14 -7 -1 7 -9 9 -25 6 -35 -6 -18 -5 -17 11 1 16 19 16 19 1 -7 -11 -18 -12 -28 -4 -30 12 -4 17 -20 25 -81 3 -20 9 -40 14 -43 5 -3 6 2 3 10 -12 31 12 16 30 -19 20 -36 44 -49 31 -17 -58 151 -80 339 -51 449 9 34 25 83 36 108 24 55 6 62 -27 10z m-36 -317 c-3 -7 -5 -2 -5 12 0 14 2 19 5 13 2 -7 2 -19 0 -25z m10 -70 c-3 -7 -5 -2 -5 12 0 14 2 19 5 13 2 -7 2 -19 0 -25z m10 -50 c-3 -7 -5 -2 -5 12 0 14 2 19 5 13 2 -7 2 -19 0 -25z" fill="#ffffff"/>
<path d="M4570 10711 c0 -6 4 -12 8 -15 5 -3 9 1 9 9 0 8 -4 15 -9 15 -4 0 -8 -4 -8 -9z" fill="#ffffff"/>
<path d="M3850 10620 c0 -5 5 -10 11 -10 5 0 7 5 4 10 -3 6 -8 10 -11 10 -2 0 -4 -4 -4 -10z" fill="#ffffff"/>
<path d="M4393 10195 c0 -8 4 -15 9 -15 4 0 8 7 8 15 0 8 -4 15 -8 15 -5 0 -9 -7 -9 -15z" fill="#ffffff"/>
<path d="M3445 10190 c-3 -6 1 -7 9 -4 18 7 21 14 7 14 -6 0 -13 -4 -16 -10z" fill="#ffffff"/>
<path d="M4238 10004 c-4 -4 -2 -16 4 -27 6 -12 14 -32 19 -46 7 -24 7 -23 8 10 1 36 -19 76 -31 63z" fill="#ffffff"/>
<path d="M3960 9985 c0 -5 5 -17 10 -25 5 -8 10 -10 10 -5 0 6 -5 17 -10 25 -5 8 -10 11 -10 5z" fill="#ffffff"/>
<path d="M4007 9923 c11 -43 12 -62 4 -81 -6 -13 -8 -29 -4 -35 4 -8 10 -3 14 13 7 23 7 23 8 -7 1 -17 -3 -35 -9 -38 -5 -3 -10 -14 -10 -23 0 -15 2 -15 10 -2 14 22 13 -25 -1 -52 -7 -14 -8 -23 -1 -30 7 -7 7 -19 1 -36 -12 -30 -20 -142 -9 -122 4 8 11 35 15 60 3 25 10 63 13 85 10 64 3 206 -13 262 -21 71 -37 77 -18 6z" fill="#ffffff"/>
<path d="M3986 9908 c4 -18 8 -41 8 -50 0 -10 4 -14 9 -9 5 5 4 27 -3 50 -13 48 -25 56 -14 9z" fill="#ffffff"/>
<path d="M4398 9903 c7 -3 16 -2 19 1 4 3 -2 6 -13 5 -11 0 -14 -3 -6 -6z" fill="#ffffff"/>
<path d="M4197 9889 c7 -7 15 -10 18 -7 3 3 -2 9 -12 12 -14 6 -15 5 -6 -5z" fill="#ffffff"/>
<path d="M4252 9875 c-10 -21 -9 -25 3 -25 9 0 15 10 15 25 0 14 -2 25 -3 25 -2 0 -9 -11 -15 -25z" fill="#ffffff"/>
<path d="M4077 9843 c8 -64 15 -69 12 -10 -2 27 -6 50 -11 53 -4 3 -5 -17 -1 -43z" fill="#ffffff"/>
<path d="M4160 9850 c0 -19 20 -27 33 -13 8 7 -11 33 -24 33 -5 0 -9 -9 -9 -20z" fill="#ffffff"/>
<path d="M4120 9846 c0 -8 5 -18 10 -21 6 -3 10 1 10 9 0 8 -4 18 -10 21 -5 3 -10 -1 -10 -9z" fill="#ffffff"/>
<path d="M4297 9841 c-2 -11 0 -22 7 -24 19 -6 46 5 46 19 0 18 -17 27 -23 12 -4 -10 -7 -10 -15 0 -7 11 -10 9 -15 -7z" fill="#ffffff"/>
<path d="M4214 9825 c-9 -35 1 -56 23 -48 9 4 12 8 6 10 -5 2 -8 14 -6 27 7 33 -15 43 -23 11z" fill="#ffffff"/>
<path d="M4160 9801 c0 -26 10 -51 21 -51 15 0 10 57 -6 64 -10 3 -15 -1 -15 -13z" fill="#ffffff"/>
<path d="M4272 9790 c1 -13 9 -25 16 -28 17 -5 15 23 -4 39 -14 11 -15 10 -12 -11z" fill="#ffffff"/>
<path d="M4485 9750 c3 -19 7 -48 11 -65 4 -23 3 -26 -5 -15 -14 20 -14 7 1 -25 6 -14 15 -25 20 -25 14 0 8 52 -12 110 -15 43 -19 47 -15 20z" fill="#ffffff"/>
<path d="M4119 9766 c-6 -6 -2 -149 6 -211 7 -56 19 -75 46 -75 28 0 39 31 32 91 -3 30 -6 61 -6 70 -1 9 -8 22 -16 29 -12 11 -13 9 -9 -18 2 -17 1 -29 -4 -26 -12 8 -9 -8 7 -36 19 -33 19 -49 0 -24 -14 18 -15 18 -6 -6 4 -14 5 -34 0 -45 l-9 -20 1 20 c2 33 -1 41 -10 26 -5 -8 -7 5 -5 33 3 35 0 45 -9 40 -9 -6 -9 -5 0 7 13 16 11 51 -6 106 -5 17 -7 34 -3 37 3 3 3 6 0 6 -2 0 -7 -2 -9 -4z" fill="#ffffff"/>
<path d="M4320 9749 c0 -11 5 -17 10 -14 6 3 10 13 10 21 0 8 -4 14 -10 14 -5 0 -10 -9 -10 -21z" fill="#ffffff"/>
<path d="M4381 9758 c-1 -22 9 -48 20 -48 5 0 9 7 9 15 0 8 -4 15 -9 15 -5 0 -12 8 -14 18 -4 15 -5 15 -6 0z" fill="#ffffff"/>
<path d="M4061 9676 c-1 -47 -2 -94 -2 -103 -3 -50 5 -103 13 -91 10 15 8 252 -2 268 -4 6 -8 -27 -9 -74z" fill="#ffffff"/>
<path d="M4271 9735 c-1 -11 -6 -27 -12 -35 -8 -12 -9 -11 -4 6 4 16 0 23 -15 27 -16 4 -20 0 -20 -18 0 -13 7 -31 16 -40 25 -24 47 1 41 46 -2 19 -5 25 -6 14z" fill="#ffffff"/>
<path d="M4318 9623 l-1 -78 -6 60 c-5 52 -7 57 -16 35 -10 -28 -14 -70 -5 -70 3 0 5 -16 6 -35 1 -37 25 -72 42 -61 6 3 8 23 5 43 -2 21 -4 71 -4 111 1 41 -3 72 -9 72 -6 0 -11 -34 -12 -77z" fill="#ffffff"/>
<path d="M4356 9683 c-6 -14 -5 -15 5 -6 7 7 10 15 7 18 -3 3 -9 -2 -12 -12z" fill="#ffffff"/>
<path d="M4385 9661 c-3 -5 -1 -12 4 -16 6 -3 8 -13 5 -23 -5 -13 -4 -14 4 -3 5 7 7 22 5 32 -6 21 -9 23 -18 10z" fill="#ffffff"/>
<path d="M4362 9568 c1 -51 5 -98 10 -105 5 -7 7 -17 3 -23 -3 -5 -1 -10 4 -10 6 0 11 -10 11 -22 0 -12 3 -19 6 -15 12 11 44 -28 44 -55 0 -15 5 -30 11 -34 9 -5 10 4 4 32 -4 21 -10 41 -13 44 -4 3 -8 19 -8 35 -1 17 -5 39 -10 49 -5 14 -4 17 4 12 13 -8 5 51 -9 70 -5 6 -6 14 -2 17 3 4 1 7 -5 7 -6 0 -13 8 -16 18 -3 9 -3 -2 0 -25 3 -24 2 -43 -3 -43 -4 0 -9 10 -9 23 -3 41 -14 110 -18 114 -2 3 -4 -37 -4 -89z m48 -100 c0 -32 -15 -19 -17 15 -2 23 0 28 7 17 5 -8 10 -23 10 -32z" fill="#ffffff"/>
<path d="M4427 9635 c-8 -20 3 -75 14 -75 5 0 6 19 3 43 -8 50 -10 53 -17 32z" fill="#ffffff"/>
<path d="M4457 9605 c3 -22 9 -49 13 -60 8 -19 8 -19 15 -1 5 11 0 33 -13 60 l-22 41 7 -40z" fill="#ffffff"/>
<path d="M4233 9543 c1 -23 0 -40 -4 -38 -10 7 2 -137 15 -172 3 -6 18 -11 35 -11 22 1 30 6 34 24 3 16 0 24 -9 24 -8 0 -14 -5 -14 -11 0 -5 -4 -8 -9 -5 -4 3 -14 47 -21 98 -14 102 -32 163 -27 91z" fill="#ffffff"/>
<path d="M4157 9447 c-11 -28 -8 -55 6 -60 7 -3 4 -6 -7 -6 -16 -1 -17 -3 -5 -18 8 -10 9 -14 2 -10 -8 5 -13 -3 -16 -25 -2 -18 -5 2 -5 45 -2 76 -12 95 -32 58 -12 -23 -14 -54 -2 -48 4 3 8 -22 9 -56 2 -33 7 -65 13 -71 7 -7 10 -6 10 2 0 7 5 12 10 12 6 0 10 -10 10 -22 0 -14 4 -18 9 -12 12 11 20 157 11 199 -5 25 -7 27 -13 12z" fill="#ffffff"/>
<path d="M4277 9433 c2 -15 4 -36 4 -46 0 -14 4 -15 20 -7 17 10 18 14 6 42 -17 41 -36 48 -30 11z" fill="#ffffff"/>
<path d="M4350 9353 c0 -9 9 -26 20 -38 16 -17 17 -22 6 -22 -8 0 -13 4 -10 9 3 4 0 8 -6 8 -8 0 -10 -9 -5 -27 11 -42 12 -83 3 -83 -4 0 -8 15 -8 33 -1 17 -7 46 -15 62 l-13 30 5 -37 c4 -25 2 -38 -6 -38 -6 0 -11 -12 -11 -27 0 -23 2 -25 11 -13 8 12 9 10 5 -10 -7 -32 10 -62 23 -42 7 11 9 10 15 -3 8 -21 22 -12 30 20 4 17 1 31 -9 42 -13 13 -14 18 -3 24 7 5 10 9 6 9 -4 0 -4 10 1 23 6 15 3 33 -10 60 -21 40 -29 46 -29 20z" fill="#ffffff"/>
<path d="M4206 9283 c-6 -14 -5 -15 5 -6 7 7 10 15 7 18 -3 3 -9 -2 -12 -12z" fill="#ffffff"/>
<path d="M4240 9285 c0 -7 5 -26 11 -42 13 -32 18 -164 7 -156 -5 2 -8 28 -8 56 0 31 -4 47 -9 39 -14 -23 -35 12 -22 37 6 11 11 28 11 38 -1 14 -4 12 -15 -8 -15 -28 -17 -109 -2 -109 5 0 5 -9 2 -20 -8 -25 13 -92 26 -85 5 4 9 -3 9 -15 0 -13 4 -19 11 -14 6 3 15 1 19 -6 6 -9 11 -6 20 10 13 25 8 169 -7 193 -4 7 -6 23 -4 37 2 20 1 22 -12 11 -13 -10 -15 -8 -13 13 2 14 -3 27 -10 30 -8 3 -14 -1 -14 -9z m47 -107 c-3 -8 -6 -5 -6 6 -1 11 2 17 5 13 3 -3 4 -12 1 -19z m-50 -120 c-3 -8 -6 -5 -6 6 -1 11 2 17 5 13 3 -3 4 -12 1 -19z m60 -20 c-3 -8 -6 -5 -6 6 -1 11 2 17 5 13 3 -3 4 -12 1 -19z m-30 -10 c-3 -8 -6 -5 -6 6 -1 11 2 17 5 13 3 -3 4 -12 1 -19z" fill="#ffffff"/>
<path d="M4455 9253 c1 -21 3 -40 5 -43 1 -3 2 -9 1 -14 -1 -4 4 -15 11 -24 11 -13 11 -14 -2 -7 -12 7 -13 6 -4 -6 7 -8 11 -25 10 -39 -1 -14 2 -33 7 -44 7 -13 6 -16 -3 -11 -9 5 -10 1 -5 -16 4 -13 4 -21 0 -17 -5 4 -14 49 -21 100 -18 123 -19 126 -28 135 -4 4 -5 -13 -2 -39 5 -36 3 -48 -6 -48 -10 0 -10 -2 1 -9 8 -5 11 -16 6 -30 -3 -11 -2 -21 3 -21 5 0 9 -21 10 -47 0 -26 5 -49 11 -51 6 -2 11 -11 11 -20 0 -15 2 -15 10 -2 8 13 10 12 10 -4 0 -14 3 -17 11 -9 18 18 14 140 -8 228 -18 72 -30 90 -28 38z" fill="#ffffff"/>
<path d="M4074 9203 c1 -24 0 -43 -3 -43 -4 0 -8 -45 -9 -100 -3 -80 -1 -100 10 -98 8 2 12 -5 10 -17 -2 -11 -5 -36 -8 -55 -2 -19 -7 -50 -11 -69 -4 -23 -2 -32 5 -27 6 3 14 1 18 -5 4 -7 3 -9 -3 -6 -6 4 -13 0 -17 -8 -7 -19 13 -77 25 -69 5 3 9 -4 9 -14 0 -19 38 -52 59 -52 5 0 4 13 -2 32 -9 24 -9 32 0 35 10 4 9 8 -2 20 -21 20 -19 39 2 22 14 -13 14 -10 -1 20 -16 31 -17 33 -1 28 9 -4 14 -3 11 2 -3 5 -7 54 -7 109 -2 103 -5 115 -26 119 -9 2 -10 -4 -3 -23 6 -14 6 -23 1 -20 -5 3 -8 -5 -7 -19 0 -14 3 -25 6 -25 5 0 4 -156 0 -210 -5 -51 -18 109 -20 238 -2 112 -4 131 -16 121 -19 -16 -18 7 1 41 16 28 21 105 5 80 -7 -12 -11 -10 -19 10 -9 22 -10 19 -7 -17z m19 -454 c-8 -8 -13 -7 -18 2 -5 8 -4 10 3 5 7 -4 12 -2 12 5 0 7 3 9 7 6 4 -4 2 -12 -4 -18z" fill="#ffffff"/>
<path d="M4225 9211 c-3 -5 -1 -12 5 -16 5 -3 10 1 10 9 0 18 -6 21 -15 7z" fill="#ffffff"/>
<path d="M4175 9065 c2 -33 4 -88 5 -123 1 -38 6 -60 12 -56 5 3 7 17 4 30 -4 14 -2 24 4 24 5 0 10 -4 10 -10 0 -5 4 -10 8 -10 4 0 8 9 8 20 0 11 -3 20 -7 20 -13 0 -31 60 -27 89 2 17 1 28 -3 25 -4 -2 -10 8 -12 23 -3 16 -4 1 -2 -32z" fill="#ffffff"/>
<path d="M4130 9077 c0 -20 4 -37 9 -37 4 0 7 14 5 32 -6 45 -14 48 -14 5z" fill="#ffffff"/>
<path d="M4226 8885 c5 -11 2 -14 -10 -9 -24 9 -43 -39 -29 -75 5 -15 8 -53 5 -84 -3 -33 0 -57 5 -57 6 0 9 -23 7 -52 -2 -34 1 -47 7 -37 6 9 7 -4 3 -34 -5 -38 -4 -47 7 -45 8 2 15 -7 18 -22 3 -23 4 -24 12 -5 7 19 8 19 8 -2 1 -14 7 -23 17 -23 11 0 14 6 9 21 -5 16 -4 19 6 14 9 -6 10 -3 5 11 -4 10 -9 29 -11 42 -1 12 -6 26 -10 30 -4 4 -4 -4 0 -17 4 -14 3 -21 -3 -18 -5 4 -12 41 -16 83 -4 43 -14 88 -24 103 -16 25 -16 25 1 12 15 -12 17 -11 17 7 0 15 -5 20 -19 17 -14 -2 -18 1 -14 11 3 7 9 11 14 8 6 -3 9 22 7 61 -1 36 -6 69 -10 71 -4 3 -5 -2 -2 -11z m12 -220 c-3 -3 -9 2 -12 12 -6 14 -5 15 5 6 7 -7 10 -15 7 -18z m-8 -70 c0 -5 -5 -3 -10 5 -5 8 -10 20 -10 25 0 6 5 3 10 -5 5 -8 10 -19 10 -25z" fill="#ffffff"/>
<path d="M4470 8878 c0 -7 5 -20 10 -28 8 -12 10 -11 10 7 0 12 -4 25 -10 28 -5 3 -10 0 -10 -7z" fill="#ffffff"/>
<path d="M4390 8681 c0 -6 4 -13 10 -16 6 -3 7 1 4 9 -7 18 -14 21 -14 7z" fill="#ffffff"/>
<path d="M4266 8641 c-4 -5 -2 -12 3 -15 5 -4 12 -2 15 3 4 5 2 12 -3 15 -5 4 -12 2 -15 -3z" fill="#ffffff"/>
<path d="M7840 8569 c-12 -15 -64 -27 -275 -59 -269 -43 -304 -50 -273 -57 22 -5 19 6 63 -278 20 -126 37 -238 39 -248 3 -9 -2 -24 -11 -32 -8 -8 -11 -15 -6 -15 4 0 134 20 288 45 247 40 281 44 291 30 19 -25 20 -17 10 50 -5 36 -13 65 -18 65 -4 0 -8 -6 -8 -14 0 -8 -12 -17 -27 -20 -81 -16 -434 -68 -437 -65 -2 2 -11 46 -19 96 -13 84 -13 93 2 97 9 3 81 15 160 27 141 22 144 22 159 3 13 -17 13 -13 7 40 -9 78 -16 96 -26 69 -6 -17 -29 -24 -166 -45 -87 -14 -159 -25 -160 -24 -1 1 -9 41 -16 89 -14 86 -14 87 7 92 11 2 112 19 224 36 198 31 203 32 217 13 14 -17 15 -16 9 21 -3 22 -9 54 -13 71 -6 30 -7 31 -21 13z" fill="#ffffff"/>
<path d="M9833 8543 c-10 -3 -13 -43 -13 -149 l0 -144 85 0 c80 0 85 1 85 21 0 20 -4 21 -60 14 l-60 -7 0 51 0 51 50 0 c43 0 50 3 50 20 0 17 -7 20 -49 20 -53 0 -61 8 -61 61 0 29 0 29 60 29 53 0 60 2 60 20 0 18 -6 20 -67 19 -38 0 -74 -3 -80 -6z" fill="#ffffff"/>
<path d="M10100 8530 c0 -17 7 -20 40 -20 l40 0 0 -130 0 -130 25 0 25 0 0 129 0 130 37 3 c27 2 39 8 41 21 3 15 -7 17 -102 17 -99 0 -106 -1 -106 -20z" fill="#ffffff"/>
<path d="M10430 8477 c0 -41 -3 -108 -6 -150 l-7 -77 27 0 c25 0 26 2 26 60 0 52 2 60 19 60 13 0 31 -20 56 -65 29 -52 41 -65 60 -65 14 0 25 2 25 5 0 3 -14 30 -32 61 l-31 56 30 24 c35 27 47 62 33 98 -14 37 -47 53 -127 61 l-73 6 0 -74z m138 17 c48 -33 9 -97 -56 -92 -41 3 -48 17 -37 74 5 30 9 34 38 34 18 0 43 -7 55 -16z" fill="#ffffff"/>
<path d="M9599 8488 c-23 -29 -47 -61 -53 -70 -19 -32 -26 -19 -26 47 0 63 -1 65 -25 65 l-26 0 6 -117 c8 -165 12 -183 35 -183 18 0 20 7 20 68 l1 67 59 -62 c49 -52 65 -63 92 -63 l32 0 -67 68 c-37 37 -67 71 -67 76 0 6 25 42 103 144 7 9 3 12 -17 12 -19 0 -36 -13 -67 -52z" fill="#ffffff"/>
<path d="M10759 8518 c5 -13 25 -58 45 -102 32 -70 35 -84 30 -132 -7 -53 -6 -54 20 -54 25 0 26 3 26 51 0 44 7 64 52 138 28 47 53 89 55 94 2 4 -7 7 -21 7 -20 0 -32 -12 -61 -65 -20 -36 -40 -63 -45 -60 -4 2 -18 32 -30 65 -21 56 -42 80 -69 80 -7 0 -7 -8 -2 -22z" fill="#ffffff"/>
<path d="M9141 8488 c-66 -33 -97 -114 -70 -185 27 -73 105 -113 181 -93 40 11 98 58 98 79 0 19 -49 12 -60 -9 -6 -10 -28 -25 -49 -31 -34 -10 -44 -9 -73 8 -120 70 -39 259 87 201 14 -6 25 -15 25 -20 0 -4 14 -8 30 -8 36 0 38 9 8 38 -50 46 -110 53 -177 20z" fill="#ffffff"/>
<path d="M8722 8439 c-73 -48 -88 -162 -28 -227 47 -53 118 -66 182 -36 94 45 111 175 34 249 -26 25 -40 30 -93 32 -50 3 -68 0 -95 -18z m154 -42 c22 -19 28 -34 32 -78 4 -48 1 -59 -20 -83 -33 -39 -102 -47 -140 -16 -32 25 -54 87 -44 125 18 73 114 101 172 52z" fill="#ffffff"/>
<path d="M12075 8440 c28 -12 37 -12 30 0 -3 6 -16 10 -28 9 -21 0 -21 -1 -2 -9z" fill="#ffffff"/>
<path d="M8364 8398 l-50 -9 17 -112 c30 -187 27 -177 53 -177 22 0 23 1 13 56 -7 45 -7 58 4 65 22 14 24 12 69 -46 40 -52 71 -68 85 -45 4 6 -12 31 -34 57 l-40 48 24 25 c41 43 33 110 -16 135 -31 17 -50 17 -125 3z m116 -60 c14 -26 13 -29 -6 -48 -11 -11 -36 -23 -56 -27 l-36 -5 -8 47 c-8 55 2 67 56 63 26 -2 38 -10 50 -30z" fill="#ffffff"/>
<path d="M6906 8382 c-47 -12 -56 -17 -40 -23 15 -5 27 -31 48 -109 15 -56 25 -105 22 -107 -10 -10 -379 -104 -390 -100 -18 7 -64 209 -48 215 7 2 12 7 12 11 0 5 -30 0 -66 -10 -69 -19 -90 -29 -60 -29 23 0 27 -13 96 -273 64 -244 66 -257 48 -275 -16 -16 -10 -15 69 5 51 12 62 18 47 24 -16 5 -27 34 -53 129 -18 67 -31 123 -29 125 11 10 393 104 398 98 9 -10 60 -212 60 -235 0 -10 -4 -18 -10 -18 -5 0 -10 -4 -10 -9 0 -5 30 -1 66 9 69 20 89 30 61 30 -9 0 -20 8 -25 18 -5 9 -37 126 -72 260 -53 202 -62 247 -52 263 15 23 11 23 -72 1z" fill="#ffffff"/>
<path d="M12253 8393 c15 -2 37 -2 50 0 12 2 0 4 -28 4 -27 0 -38 -2 -22 -4z" fill="#ffffff"/>
<path d="M12038 8373 c7 -3 16 -2 19 1 4 3 -2 6 -13 5 -11 0 -14 -3 -6 -6z" fill="#ffffff"/>
<path d="M12125 8369 c-4 -6 -5 -12 -2 -15 2 -3 7 2 10 11 7 17 1 20 -8 4z" fill="#ffffff"/>
<path d="M12441 8344 c0 -11 3 -14 6 -6 3 7 2 16 -1 19 -3 4 -6 -2 -5 -13z" fill="#ffffff"/>
<path d="M11948 8343 c7 -3 16 -2 19 1 4 3 -2 6 -13 5 -11 0 -14 -3 -6 -6z" fill="#ffffff"/>
<path d="M12028 8333 c7 -3 16 -2 19 1 4 3 -2 6 -13 5 -11 0 -14 -3 -6 -6z" fill="#ffffff"/>
<path d="M12096 8322 c-2 -4 4 -8 15 -8 10 0 19 4 19 8 0 4 -6 8 -14 8 -8 0 -17 -4 -20 -8z" fill="#ffffff"/>
<path d="M12292 8318 c-17 -17 -15 -43 6 -59 14 -11 15 -11 5 1 -18 20 -16 47 5 59 9 6 12 11 7 11 -6 0 -16 -5 -23 -12z" fill="#ffffff"/>
<path d="M12490 8327 c0 -2 15 -16 33 -33 l32 -29 -29 33 c-28 30 -36 37 -36 29z" fill="#ffffff"/>
<path d="M12168 8313 c-10 -2 -18 -12 -17 -21 0 -11 2 -12 6 -4 2 6 11 12 19 12 8 0 14 5 14 10 0 6 -1 9 -2 9 -2 -1 -11 -3 -20 -6z" fill="#ffffff"/>
<path d="M11998 8293 c7 -3 16 -2 19 1 4 3 -2 6 -13 5 -11 0 -14 -3 -6 -6z" fill="#ffffff"/>
<path d="M12111 8274 c-1 -14 10 -26 35 -38 20 -9 38 -15 41 -13 2 2 -10 10 -28 17 -17 7 -35 23 -39 34 l-9 21 0 -21z" fill="#ffffff"/>
<path d="M12431 8264 c0 -11 3 -14 6 -6 3 7 2 16 -1 19 -3 4 -6 -2 -5 -13z" fill="#ffffff"/>
<path d="M12033 8203 c8 -7 88 -6 95 2 3 3 -19 5 -48 5 -29 0 -50 -3 -47 -7z" fill="#ffffff"/>
<path d="M10010 8169 c-861 -30 -1691 -146 -2480 -344 -1552 -390 -2947 -1105 -4037 -2069 l-91 -81 -1 -1068 -1 -1068 2303 4 c2466 4 2331 1 2642 52 571 92 1122 299 1595 598 948 599 1621 1528 1885 2602 81 327 113 570 122 913 3 127 6 233 7 233 1 1 177 5 391 8 l390 6 -190 33 c-810 142 -1753 210 -2535 181z m140 -498 c0 -150 -51 -411 -121 -627 -115 -351 -312 -674 -574 -943 -418 -430 -950 -692 -1524 -750 -66 -7 -535 -11 -1325 -11 l-1221 1 95 90 c174 166 413 364 672 556 1067 795 2329 1359 3783 1689 105 23 196 43 203 43 8 1 12 -15 12 -48z" fill="#ffffff"/>
<path d="M6030 8119 c-25 -4 -119 -35 -210 -68 -91 -34 -172 -64 -180 -67 -11 -4 -9 -8 9 -17 18 -10 41 -61 112 -252 48 -132 88 -247 89 -257 0 -9 -6 -18 -12 -21 -7 -2 -11 -7 -8 -9 3 -3 37 6 75 21 47 17 63 27 48 29 -12 2 -24 11 -28 20 -13 31 -75 203 -75 207 0 1 59 25 131 51 153 55 185 75 216 129 28 49 29 104 4 153 -36 71 -85 94 -171 81z m78 -91 c44 -48 37 -119 -16 -150 -42 -25 -252 -100 -265 -95 -13 5 -72 165 -65 173 3 2 59 24 124 49 137 51 190 56 222 23z" fill="#ffffff"/>
<path d="M5290 7835 c-52 -27 -60 -34 -39 -35 24 0 34 -17 121 -197 53 -109 94 -200 92 -202 -3 -3 -524 217 -534 226 -2 2 1 12 8 23 11 18 10 18 -26 3 -20 -8 -59 -27 -87 -41 -40 -21 -46 -27 -28 -30 14 -2 28 -18 41 -45 11 -23 64 -132 117 -242 81 -168 95 -203 85 -218 -6 -11 -10 -20 -8 -22 2 -2 32 12 68 31 46 23 58 33 42 34 -20 0 -36 28 -123 206 -55 114 -98 209 -96 211 4 3 547 -225 557 -233 2 -3 -1 -14 -8 -24 -10 -16 1 -13 64 15 42 19 79 35 83 36 3 1 -5 4 -19 8 -16 4 -32 22 -47 51 -202 417 -213 443 -196 462 23 26 7 22 -67 -17z" fill="#ffffff"/>
<path d="M4303 7317 c-93 -59 -103 -68 -74 -60 13 3 23 0 26 -8 10 -30 76 -556 73 -581 -3 -16 -3 -28 0 -28 2 0 28 15 58 32 55 33 69 50 35 41 -25 -6 -28 0 -36 87 l-6 75 135 83 c75 45 141 82 146 82 14 0 89 -47 117 -73 22 -19 22 -22 6 -39 -24 -26 -12 -23 56 18 69 41 81 54 51 54 -15 0 -470 292 -510 327 -2 2 1 13 8 23 18 29 6 24 -85 -33z m165 -141 c67 -43 122 -81 122 -85 0 -8 -205 -131 -217 -131 -8 0 -44 241 -43 288 0 18 -3 19 138 -72z" fill="#ffffff"/>
<path d="M3783 6945 c-29 -8 -70 -26 -92 -39 -58 -37 -286 -206 -289 -215 -1 -4 6 -7 17 -7 14 1 63 -58 176 -212 135 -184 156 -217 150 -239 -5 -21 -4 -24 7 -16 7 6 74 55 148 110 199 147 242 202 243 313 0 73 -35 152 -100 221 -76 82 -164 110 -260 84z m130 -89 c44 -18 110 -93 132 -149 23 -60 16 -124 -19 -177 -14 -21 -71 -73 -127 -116 -85 -64 -103 -74 -114 -63 -20 21 -246 330 -251 343 -4 12 168 139 218 161 42 18 119 19 161 1z" fill="#ffffff"/>
</g>
</svg>